<svg version="1.1" xmlns="http://www.w3.org/2000/svg" width="18" height="18" viewBox="0 0 18 18" fill="#4d4d4d">
	<circle cx="6.64" cy="13.118" r="0.378"/>
	<path d="M16.1,6.4l-4.3-0.7l-2-4.1C9.6,1.2,9.3,1,9,1S8.4,1.2,8.2,1.7l-2,4.1L1.9,6.5c-1,0.2-1.2,0.9-0.5,1.6l3.1,3.3L3.8,16 c-0.1,0.6,0.2,1,0.7,1c0.2,0,0.4-0.1,0.6-0.2L9,14.7l3.9,2.1C13.1,16.9,13.4,17,13.5,17c0.5,0,0.8-0.4,0.7-1.1L13.5,11.3L16.6,8 C17.3,7.3,17,6.6,16.1,6.4z M12.947,9.74c-0.422,1.172-1.714,1.777-2.885,1.355l-2.89,2.863c-0.383,0.377-0.997,0.377-1.38,0 c-0.002-0.004-0.005-0.006-0.008-0.008c-0.374-0.379-0.37-0.988,0.008-1.359L8.67,9.737C8.441,9.135,8.483,8.464,8.781,7.894 c0.578-1.104,1.939-1.529,3.042-0.952l-1.369,1.367c-0.272,0.271-0.272,0.713,0,0.984c0.271,0.271,0.712,0.271,0.983,0l1.376-1.375 c0.173,0.321,0.265,0.679,0.268,1.043C13.083,9.227,13.037,9.49,12.947,9.74z"/>
</svg>
